<svg width="305" height="54" viewBox="0 0 305 54" fill="none" xmlns="http://www.w3.org/2000/svg">
<path d="M80.4847 40.9726C78.6023 40.9726 76.9004 40.6502 75.379 40.0054C73.8834 39.3607 72.6973 38.4322 71.8206 37.22C70.9438 36.0078 70.4926 34.5764 70.4668 32.9258H76.2687C76.346 34.0348 76.7328 34.9117 77.429 35.5565C78.151 36.2013 79.1309 36.5236 80.3686 36.5236C81.6321 36.5236 82.6249 36.227 83.3469 35.6339C84.0689 35.0149 84.4299 34.2153 84.4299 33.2353C84.4299 32.4358 84.1849 31.7781 83.695 31.2623C83.2051 30.7464 82.5862 30.3467 81.8384 30.063C81.1164 29.7535 80.1108 29.4182 78.8215 29.0571C77.068 28.5413 75.6369 28.0384 74.5281 27.5484C73.4451 27.0325 72.5039 26.2717 71.7045 25.2659C70.9309 24.2342 70.5442 22.8673 70.5442 21.1651C70.5442 19.566 70.9438 18.1733 71.7432 16.9869C72.5426 15.8005 73.6643 14.8978 75.1083 14.2789C76.5523 13.6341 78.2026 13.3117 80.0592 13.3117C82.8441 13.3117 85.1004 13.9952 86.828 15.3621C88.5815 16.7032 89.5484 18.586 89.7289 21.0103H83.7724C83.7208 20.0819 83.3211 19.321 82.5733 18.7278C81.8513 18.1088 80.8843 17.7993 79.6724 17.7993C78.6152 17.7993 77.7642 18.0701 77.1196 18.6118C76.5007 19.1534 76.1913 19.94 76.1913 20.9716C76.1913 21.6938 76.4234 22.2999 76.8875 22.7899C77.3774 23.2541 77.9705 23.641 78.6667 23.9505C79.3888 24.2342 80.3944 24.5695 81.6837 24.9564C83.4372 25.4722 84.8683 25.988 85.9771 26.5038C87.0859 27.0196 88.04 27.7934 88.8393 28.825C89.6387 29.8567 90.0384 31.2107 90.0384 32.8871C90.0384 34.3314 89.6645 35.6725 88.9167 36.9105C88.1689 38.1485 87.073 39.1414 85.629 39.8894C84.1849 40.6115 82.4702 40.9726 80.4847 40.9726ZM92.567 29.9856C92.567 27.7676 93.0183 25.8333 93.9208 24.1826C94.8233 22.5062 96.0739 21.2167 97.6726 20.314C99.2714 19.3855 101.102 18.9213 103.165 18.9213C105.821 18.9213 108.013 19.5918 109.74 20.933C111.494 22.2483 112.667 24.1053 113.26 26.5038H107.42C107.11 25.5753 106.582 24.8532 105.834 24.3374C105.112 23.7958 104.209 23.525 103.126 23.525C101.579 23.525 100.354 24.0924 99.4519 25.2272C98.5494 26.3362 98.0981 27.9223 98.0981 29.9856C98.0981 32.0231 98.5494 33.6093 99.4519 34.7441C100.354 35.8531 101.579 36.4076 103.126 36.4076C105.318 36.4076 106.749 35.4275 107.42 33.4674H113.26C112.667 35.7886 111.494 37.6327 109.74 38.9996C107.987 40.3665 105.795 41.05 103.165 41.05C101.102 41.05 99.2714 40.5986 97.6726 39.6959C96.0739 38.7675 94.8233 37.4779 93.9208 35.8273C93.0183 34.1509 92.567 32.2036 92.567 29.9856ZM128.522 18.9599C130.146 18.9599 131.59 19.321 132.854 20.0432C134.117 20.7395 135.097 21.7841 135.793 23.1768C136.515 24.5437 136.876 26.1943 136.876 28.1287V40.7018H131.461V28.8637C131.461 27.1615 131.036 25.859 130.185 24.9564C129.334 24.0279 128.173 23.5636 126.704 23.5636C125.208 23.5636 124.022 24.0279 123.145 24.9564C122.294 25.859 121.869 27.1615 121.869 28.8637V40.7018H116.454V12.0737H121.869V21.9388C122.565 21.0103 123.493 20.2882 124.654 19.7724C125.814 19.2307 127.103 18.9599 128.522 18.9599ZM150.767 41.05C148.704 41.05 146.848 40.5986 145.197 39.6959C143.547 38.7675 142.245 37.465 141.291 35.7886C140.363 34.1122 139.898 32.1778 139.898 29.9856C139.898 27.7934 140.375 25.859 141.33 24.1826C142.309 22.5062 143.637 21.2167 145.313 20.314C146.99 19.3855 148.859 18.9213 150.922 18.9213C152.985 18.9213 154.854 19.3855 156.53 20.314C158.206 21.2167 159.522 22.5062 160.476 24.1826C161.456 25.859 161.945 27.7934 161.945 29.9856C161.945 32.1778 161.443 34.1122 160.437 35.7886C159.457 37.465 158.116 38.7675 156.414 39.6959C154.738 40.5986 152.856 41.05 150.767 41.05ZM150.767 36.3302C151.747 36.3302 152.662 36.0981 153.513 35.6339C154.39 35.1438 155.086 34.4217 155.602 33.4674C156.118 32.5131 156.376 31.3525 156.376 29.9856C156.376 27.9481 155.834 26.3878 154.751 25.3045C153.694 24.1955 152.392 23.641 150.845 23.641C149.297 23.641 147.995 24.1955 146.938 25.3045C145.907 26.3878 145.391 27.9481 145.391 29.9856C145.391 32.0231 145.894 33.5964 146.899 34.7054C147.931 35.7886 149.22 36.3302 150.767 36.3302ZM174.659 41.05C172.596 41.05 170.74 40.5986 169.089 39.6959C167.439 38.7675 166.137 37.465 165.183 35.7886C164.255 34.1122 163.79 32.1778 163.79 29.9856C163.79 27.7934 164.267 25.859 165.221 24.1826C166.201 22.5062 167.529 21.2167 169.205 20.314C170.882 19.3855 172.751 18.9213 174.814 18.9213C176.877 18.9213 178.746 19.3855 180.422 20.314C182.098 21.2167 183.413 22.5062 184.368 24.1826C185.347 25.859 185.837 27.7934 185.837 29.9856C185.837 32.1778 185.335 34.1122 184.329 35.7886C183.349 37.465 182.008 38.7675 180.306 39.6959C178.63 40.5986 176.748 41.05 174.659 41.05ZM174.659 36.3302C175.639 36.3302 176.554 36.0981 177.405 35.6339C178.282 35.1438 178.978 34.4217 179.494 33.4674C180.01 32.5131 180.268 31.3525 180.268 29.9856C180.268 27.9481 179.726 26.3878 178.643 25.3045C177.586 24.1955 176.284 23.641 174.737 23.641C173.189 23.641 171.887 24.1955 170.83 25.3045C169.798 26.3878 169.283 27.9481 169.283 29.9856C169.283 32.0231 169.786 33.5964 170.791 34.7054C171.823 35.7886 173.112 36.3302 174.659 36.3302ZM194.451 12.0737V40.7018H189.036V12.0737H194.451Z" fill="#FF8700"/>
<path d="M228.988 22.287C228.988 23.8603 228.627 25.3046 227.905 26.6199C227.183 27.9094 226.074 28.954 224.579 29.7535C223.083 30.553 221.227 30.9528 219.009 30.9528H214.909V40.7018H208.295V13.5438H219.009C221.175 13.5438 223.006 13.9178 224.501 14.6657C225.997 15.4137 227.119 16.4453 227.866 17.7607C228.614 19.076 228.988 20.5848 228.988 22.287ZM218.506 25.6914C219.77 25.6914 220.711 25.3948 221.33 24.8016C221.949 24.2084 222.258 23.3702 222.258 22.287C222.258 21.2038 221.949 20.3656 221.33 19.7724C220.711 19.1792 219.77 18.8826 218.506 18.8826H214.909V25.6914H218.506ZM241.482 41.0113C239.368 41.0113 237.46 40.56 235.758 39.6573C234.082 38.7546 232.754 37.465 231.774 35.7886C230.82 34.1122 230.343 32.1521 230.343 29.9083C230.343 27.6902 230.833 25.743 231.813 24.0666C232.792 22.3644 234.133 21.0619 235.835 20.1592C237.537 19.2566 239.445 18.8052 241.56 18.8052C243.674 18.8052 245.582 19.2566 247.284 20.1592C248.986 21.0619 250.327 22.3644 251.307 24.0666C252.287 25.743 252.777 27.6902 252.777 29.9083C252.777 32.1263 252.274 34.0864 251.268 35.7886C250.288 37.465 248.934 38.7546 247.207 39.6573C245.505 40.56 243.597 41.0113 241.482 41.0113ZM241.482 35.2857C242.746 35.2857 243.816 34.8214 244.693 33.893C245.595 32.9645 246.046 31.6363 246.046 29.9083C246.046 28.1803 245.608 26.852 244.731 25.9235C243.88 24.9951 242.823 24.5308 241.56 24.5308C240.27 24.5308 239.2 24.9951 238.349 25.9235C237.498 26.8262 237.073 28.1545 237.073 29.9083C237.073 31.6363 237.485 32.9645 238.311 33.893C239.162 34.8214 240.219 35.2857 241.482 35.2857ZM258.838 16.8709C257.678 16.8709 256.724 16.5356 255.976 15.865C255.254 15.1687 254.893 14.3176 254.893 13.3117C254.893 12.2801 255.254 11.429 255.976 10.7584C256.724 10.062 257.678 9.71387 258.838 9.71387C259.973 9.71387 260.901 10.062 261.623 10.7584C262.371 11.429 262.745 12.2801 262.745 13.3117C262.745 14.3176 262.371 15.1687 261.623 15.865C260.901 16.5356 259.973 16.8709 258.838 16.8709ZM262.126 19.1147V40.7018H255.512V19.1147H262.126ZM279.296 18.8826C281.823 18.8826 283.835 19.7079 285.33 21.3585C286.852 22.9834 287.612 25.2272 287.612 28.09V40.7018H281.037V28.9798C281.037 27.5355 280.663 26.4136 279.915 25.614C279.167 24.8145 278.162 24.4148 276.898 24.4148C275.635 24.4148 274.629 24.8145 273.881 25.614C273.133 26.4136 272.759 27.5355 272.759 28.9798V40.7018H266.145V19.1147H272.759V21.9775C273.43 21.0232 274.332 20.2753 275.467 19.7337C276.602 19.1663 277.878 18.8826 279.296 18.8826ZM303.464 35.0923V40.7018H300.099C297.701 40.7018 295.832 40.1215 294.491 38.9609C293.15 37.7745 292.479 35.8531 292.479 33.1966V24.6082H289.849V19.1147H292.479V13.8533H299.093V19.1147H303.425V24.6082H299.093V33.274C299.093 33.9188 299.248 34.383 299.558 34.6667C299.867 34.9504 300.383 35.0923 301.105 35.0923H303.464Z" fill="#334155"/>
<path d="M50.6904 5.00293C54.4447 5.00297 56.477 9.40034 54.0446 12.2604L43.9502 24.1305L46.1388 26.9651C50.2271 32.2593 46.4539 39.9421 39.7659 39.9421H29.453C18.8421 39.9421 10.2402 31.3386 10.2402 20.7256C10.2402 12.0422 17.2781 5.00293 25.9598 5.00293H50.6904Z" fill="#FF9318"/>
<path d="M8.66315 51.4082C5.34663 51.4082 3.55125 47.5234 5.70002 44.9967L16.5138 32.2807L16.0543 31.7739C11.537 26.7904 15.0723 18.8115 21.7977 18.8115H36.4128C44.0405 18.8115 50.2235 24.9961 50.2235 32.6251C50.2235 42.9987 41.8156 51.4082 31.4441 51.4082H8.66315Z" fill="#FF9318"/>
<path d="M41.6452 33.1323L50.1377 34.4277C49.211 44.0575 41.1218 51.4072 31.4496 51.4072H30.5391L33.5366 48.6882C37.4868 45.1057 40.1871 40.3529 41.2427 35.125L41.6452 33.1323Z" fill="#F47500"/>
</svg>
