<svg width="143" height="32" viewBox="0 0 143 32" fill="none" xmlns="http://www.w3.org/2000/svg">
<g id="Frame">
<path id="Vector" d="M7.24954 24.2798C6.11139 24.2798 5.08237 24.0888 4.16249 23.7067C3.25821 23.3246 2.54102 22.7744 2.01092 22.056C1.48082 21.3377 1.20797 20.4895 1.19238 19.5113H4.70039C4.74716 20.1685 4.98103 20.6882 5.40199 21.0702C5.83854 21.4523 6.43101 21.6434 7.17938 21.6434C7.94335 21.6434 8.54361 21.4676 8.98016 21.1161C9.41671 20.7493 9.63499 20.2755 9.63499 19.6947C9.63499 19.2209 9.48687 18.8312 9.19064 18.5255C8.89441 18.2199 8.52022 17.983 8.06808 17.8148C7.63152 17.6314 7.02347 17.4327 6.24391 17.2188C5.18371 16.9131 4.31841 16.6151 3.64799 16.3247C2.99316 16.019 2.42408 15.5682 1.94076 14.9721C1.47302 14.3607 1.23916 13.5507 1.23916 12.542C1.23916 11.5944 1.48082 10.7691 1.96414 10.0661C2.44747 9.36302 3.12568 8.82809 3.99879 8.46129C4.87189 8.0792 5.86973 7.88815 6.99229 7.88815C8.67613 7.88815 10.0404 8.29317 11.085 9.1032C12.1452 9.89794 12.7298 11.0136 12.839 12.4503H9.23741C9.20623 11.9001 8.96457 11.4492 8.51242 11.0977C8.07587 10.7309 7.4912 10.5475 6.75842 10.5475C6.11918 10.5475 5.60468 10.708 5.2149 11.0289C4.84071 11.3499 4.65362 11.816 4.65362 12.4274C4.65362 12.8553 4.79394 13.2145 5.07458 13.5049C5.37081 13.78 5.7294 14.0092 6.15037 14.1926C6.58692 14.3607 7.19497 14.5594 7.97453 14.7887C9.03473 15.0944 9.90003 15.4 10.5705 15.7057C11.2409 16.0114 11.8177 16.4699 12.3011 17.0812C12.7844 17.6926 13.0261 18.495 13.0261 19.4884C13.0261 20.3443 12.8 21.139 12.3478 21.8726C11.8957 22.6062 11.2331 23.1947 10.36 23.6379C9.48687 24.0658 8.45006 24.2798 7.24954 24.2798ZM14.555 17.769C14.555 16.4546 14.8278 15.3083 15.3735 14.3302C15.9192 13.3367 16.6754 12.5726 17.642 12.0376C18.6087 11.4874 19.7156 11.2123 20.9629 11.2123C22.5688 11.2123 23.8941 11.6097 24.9387 12.4045C25.9989 13.1839 26.7083 14.2843 27.0669 15.7057H23.5355C23.3484 15.1555 23.0287 14.7276 22.5766 14.4219C22.1401 14.1009 21.5944 13.9405 20.9395 13.9405C20.0041 13.9405 19.2635 14.2767 18.7178 14.9492C18.1721 15.6064 17.8993 16.5463 17.8993 17.769C17.8993 18.9764 18.1721 19.9163 18.7178 20.5888C19.2635 21.246 20.0041 21.5746 20.9395 21.5746C22.2648 21.5746 23.1301 20.9938 23.5355 19.8323H27.0669C26.7083 21.2078 25.9989 22.3006 24.9387 23.1106C23.8785 23.9206 22.5532 24.3256 20.9629 24.3256C19.7156 24.3256 18.6087 24.0582 17.642 23.5233C16.6754 22.973 15.9192 22.2089 15.3735 21.2307C14.8278 20.2373 14.555 19.0834 14.555 17.769ZM36.2944 11.2353C37.2766 11.2353 38.1497 11.4492 38.9137 11.8772C39.6777 12.2898 40.2701 12.9088 40.6911 13.7341C41.1276 14.5442 41.3459 15.5223 41.3459 16.6686V24.1193H38.0718V17.1042C38.0718 16.0954 37.8145 15.3236 37.3 14.7887C36.7855 14.2385 36.0839 13.9634 35.1952 13.9634C34.2909 13.9634 33.5737 14.2385 33.0436 14.7887C32.5291 15.3236 32.2719 16.0954 32.2719 17.1042V24.1193H28.9977V7.15454H32.2719V13.0005C32.6928 12.4503 33.2541 12.0224 33.9557 11.7167C34.6573 11.3957 35.4369 11.2353 36.2944 11.2353ZM49.7449 24.3256C48.4976 24.3256 47.375 24.0582 46.3772 23.5233C45.3794 22.973 44.592 22.2012 44.0152 21.2078C43.4539 20.2144 43.1732 19.0681 43.1732 17.769C43.1732 16.4699 43.4617 15.3236 44.0385 14.3302C44.631 13.3367 45.4339 12.5726 46.4474 12.0376C47.4608 11.4874 48.5912 11.2123 49.8384 11.2123C51.0857 11.2123 52.2161 11.4874 53.2295 12.0376C54.2429 12.5726 55.0381 13.3367 55.615 14.3302C56.2074 15.3236 56.5037 16.4699 56.5037 17.769C56.5037 19.0681 56.1996 20.2144 55.5916 21.2078C54.9991 22.2012 54.1884 22.973 53.1594 23.5233C52.1459 24.0582 51.0078 24.3256 49.7449 24.3256ZM49.7449 21.5287C50.3374 21.5287 50.8909 21.3912 51.4054 21.1161C51.9355 20.8257 52.3564 20.3978 52.6682 19.8323C52.9801 19.2668 53.136 18.579 53.136 17.769C53.136 16.5616 52.8086 15.6369 52.1537 14.995C51.5145 14.3378 50.7271 14.0092 49.7917 14.0092C48.8562 14.0092 48.0689 14.3378 47.4296 14.995C46.806 15.6369 46.4941 16.5616 46.4941 17.769C46.4941 18.9764 46.7982 19.9087 47.4062 20.5659C48.0299 21.2078 48.8094 21.5287 49.7449 21.5287ZM64.1908 24.3256C62.9435 24.3256 61.821 24.0582 60.8231 23.5233C59.8253 22.973 59.038 22.2012 58.4611 21.2078C57.8998 20.2144 57.6192 19.0681 57.6192 17.769C57.6192 16.4699 57.9076 15.3236 58.4845 14.3302C59.0769 13.3367 59.8799 12.5726 60.8933 12.0376C61.9067 11.4874 63.0371 11.2123 64.2844 11.2123C65.5317 11.2123 66.662 11.4874 67.6754 12.0376C68.6889 12.5726 69.484 13.3367 70.0609 14.3302C70.6534 15.3236 70.9496 16.4699 70.9496 17.769C70.9496 19.0681 70.6456 20.2144 70.0375 21.2078C69.445 22.2012 68.6343 22.973 67.6053 23.5233C66.5919 24.0582 65.4537 24.3256 64.1908 24.3256ZM64.1908 21.5287C64.7833 21.5287 65.3368 21.3912 65.8513 21.1161C66.3814 20.8257 66.8023 20.3978 67.1142 19.8323C67.426 19.2668 67.5819 18.579 67.5819 17.769C67.5819 16.5616 67.2545 15.6369 66.5997 14.995C65.9604 14.3378 65.1731 14.0092 64.2376 14.0092C63.3021 14.0092 62.5148 14.3378 61.8755 14.995C61.2519 15.6369 60.9401 16.5616 60.9401 17.769C60.9401 18.9764 61.2441 19.9087 61.8522 20.5659C62.4758 21.2078 63.2554 21.5287 64.1908 21.5287ZM76.1575 7.15454V24.1193H72.8834V7.15454H76.1575Z" fill="#FF8700"/>
<path id="Vector_2" d="M97.0402 13.2068C97.0402 14.1391 96.8219 14.995 96.3854 15.7745C95.9488 16.5387 95.2784 17.1577 94.3741 17.6314C93.4698 18.1052 92.3473 18.3421 91.0064 18.3421H88.5275V24.1193H84.5283V8.02572H91.0064C92.3161 8.02572 93.4231 8.24733 94.3274 8.69055C95.2316 9.13377 95.9099 9.74512 96.362 10.5246C96.8141 11.304 97.0402 12.1981 97.0402 13.2068ZM90.7024 15.2243C91.4664 15.2243 92.0355 15.0485 92.4096 14.697C92.7838 14.3455 92.9709 13.8488 92.9709 13.2068C92.9709 12.5649 92.7838 12.0682 92.4096 11.7167C92.0355 11.3652 91.4664 11.1894 90.7024 11.1894H88.5275V15.2243H90.7024ZM104.595 24.3027C103.316 24.3027 102.162 24.0353 101.133 23.5003C100.12 22.9654 99.317 22.2012 98.7245 21.2078C98.1477 20.2144 97.8592 19.0528 97.8592 17.7231C97.8592 16.4088 98.1555 15.2548 98.7479 14.2614C99.3404 13.2527 100.151 12.4809 101.18 11.946C102.209 11.411 103.363 11.1436 104.641 11.1436C105.92 11.1436 107.074 11.411 108.103 11.946C109.132 12.4809 109.942 13.2527 110.535 14.2614C111.127 15.2548 111.424 16.4088 111.424 17.7231C111.424 19.0375 111.12 20.1991 110.511 21.2078C109.919 22.2012 109.1 22.9654 108.056 23.5003C107.027 24.0353 105.873 24.3027 104.595 24.3027ZM104.595 20.9098C105.359 20.9098 106.006 20.6347 106.536 20.0845C107.081 19.5343 107.354 18.7471 107.354 17.7231C107.354 16.6991 107.089 15.912 106.559 15.3618C106.045 14.8116 105.405 14.5365 104.641 14.5365C103.862 14.5365 103.215 14.8116 102.7 15.3618C102.186 15.8968 101.929 16.6839 101.929 17.7231C101.929 18.7471 102.178 19.5343 102.677 20.0845C103.191 20.6347 103.831 20.9098 104.595 20.9098ZM115.089 9.9973C114.387 9.9973 113.81 9.79861 113.358 9.40124C112.921 8.98858 112.703 8.48422 112.703 7.88816C112.703 7.27682 112.921 6.77246 113.358 6.37509C113.81 5.96243 114.387 5.7561 115.089 5.7561C115.775 5.7561 116.336 5.96243 116.773 6.37509C117.225 6.77246 117.451 7.27682 117.451 7.88816C117.451 8.48422 117.225 8.98858 116.773 9.40124C116.336 9.79861 115.775 9.9973 115.089 9.9973ZM117.077 11.327V24.1193H113.077V11.327H117.077ZM127.458 11.1894C128.986 11.1894 130.202 11.6785 131.107 12.6566C132.026 13.6195 132.486 14.9492 132.486 16.6457V24.1193H128.511V17.1729C128.511 16.3171 128.285 15.6522 127.832 15.1784C127.38 14.7046 126.772 14.4677 126.008 14.4677C125.244 14.4677 124.636 14.7046 124.184 15.1784C123.732 15.6522 123.506 16.3171 123.506 17.1729V24.1193H119.507V11.327H123.506V13.0234C123.911 12.458 124.457 12.0147 125.143 11.6938C125.829 11.3575 126.601 11.1894 127.458 11.1894ZM142.071 20.7951V24.1193H140.036C138.586 24.1193 137.456 23.7754 136.645 23.0877C135.835 22.3846 135.429 21.246 135.429 19.6718V14.5824H133.839V11.327H135.429V8.20912H139.428V11.327H142.048V14.5824H139.428V19.7177C139.428 20.0997 139.522 20.3748 139.709 20.543C139.896 20.7111 140.208 20.7951 140.644 20.7951H142.071Z" fill="white"/>
<path id="Vector_3" d="M114.985 10.2686C116.33 10.2686 117.421 9.19938 117.421 7.88049C117.421 6.5616 116.33 5.49243 114.985 5.49243C113.64 5.49243 112.549 6.5616 112.549 7.88049C112.549 9.19938 113.64 10.2686 114.985 10.2686Z" fill="#FF8700"/>
</g>
</svg>
